# Blender 4.2.1 LTS
# www.blender.org
mtllib Cube.mtl
o Cube
v -10.905670 4.493860 -9.419784
v -10.905670 4.493860 -11.419784
v 5.113752 4.493858 -9.419784
v 5.113752 4.493858 -11.419784
v -10.905668 22.137623 -9.419784
v -10.905668 22.137623 -11.419784
v 5.113754 22.137621 -9.419784
v 5.113754 22.137621 -11.419784
v -2.895957 22.137623 -11.419784
v -2.895959 4.493859 -11.419784
v 0.095007 22.137623 -11.419784
v -5.886922 22.137623 -11.419784
v -5.886923 4.493859 -6.958438
v 0.095006 4.493859 -6.958439
v 0.095008 22.137623 -6.958439
v -5.886922 22.137623 -6.958438
v 0.095006 4.493859 -11.419784
v -5.886923 4.493859 -11.419784
v -1.556646 22.137623 -7.591423
v -4.235269 22.137623 -7.591423
v -2.895957 22.137623 -8.644534
v -4.235270 4.493859 -7.591423
v -1.556647 4.493859 -7.591423
v -2.895958 4.493859 -8.644534
vn -0.0000 -1.0000 -0.0000
vn 1.0000 -0.0000 -0.0000
vn -0.0000 1.0000 -0.0000
vn -0.4403 -0.0000 0.8978
vn -1.0000 -0.0000 -0.0000
vn 0.4403 -0.0000 0.8978
vn -0.0000 -0.0000 -1.0000
vn 0.3579 -0.0000 0.9338
vn -0.3579 -0.0000 0.9338
vn -0.0000 -0.0000 1.0000
vt 0.375000 0.671677
vt 0.584290 0.625000
vt 0.625000 0.645901
vt 0.625000 0.750000
vt 0.375000 1.000000
vt 0.375000 0.750000
vt 0.375000 0.171677
vt 0.625000 0.250000
vt 0.375000 0.250000
vt 0.875000 0.500000
vt 0.625000 0.578323
vt 0.625000 0.500000
vt 0.375000 0.500000
vt 0.875000 0.671677
vt 0.625000 0.671677
vt 0.375000 0.671677
vt 0.125000 0.750000
vt 0.125000 0.671677
vt 0.125000 0.578323
vt 0.125000 0.500000
vt 0.375000 0.578323
vt 0.125000 0.625000
vt 0.375000 0.625000
vt 0.625000 0.604099
vt 0.875000 0.578323
vt 0.875000 0.604099
vt 0.584290 0.125000
vt 0.625000 0.145901
vt 0.625000 0.000000
vt 0.375000 0.078323
vt 0.375000 0.000000
vt 0.875000 0.645901
vt 0.625000 0.104099
vt 0.625000 0.108109
vt 0.625000 0.608109
vt 0.625000 0.078323
vt 0.625000 0.671677
vt 0.625000 1.000000
vt 0.625000 0.171677
vt 0.875000 0.750000
vt 0.375000 0.125000
s 0
usemtl Material
f 17/1/1 23/3/1 24/2/1
f 3/4/2 4/6/2 8/5/2
f 17/1/1 4/6/1 3/4/1
f 12/7/3 6/9/3 5/8/3
f 5/10/4 1/12/4 13/11/4
f 5/8/5 6/9/5 2/13/5
f 15/14/6 14/15/6 3/4/6
f 17/16/7 11/18/7 8/17/7
f 2/13/7 6/20/7 12/19/7
f 1/12/1 2/13/1 18/21/1
f 9/22/7 10/23/7 18/21/7
f 22/24/8 20/26/8 16/25/8
f 12/7/3 20/28/3 21/27/3
f 7/29/3 8/31/3 11/30/3
f 14/15/9 15/14/9 19/32/9
f 11/18/7 17/16/7 10/23/7
f 24/2/1 13/11/1 18/21/1
f 19/33/3 21/27/3 20/34/3
f 22/24/1 24/2/1 23/35/1
f 20/26/10 22/24/10 23/3/10
f 21/27/3 15/36/3 11/30/3
f 23/3/1 17/1/1 14/37/1
f 17/1/1 24/2/1 10/23/1
f 3/4/2 8/5/2 7/38/2
f 17/1/1 3/4/1 14/37/1
f 12/7/3 5/8/3 16/39/3
f 5/10/4 13/11/4 16/25/4
f 5/8/5 2/13/5 1/12/5
f 15/14/6 3/4/6 7/40/6
f 17/16/7 8/17/7 4/6/7
f 2/13/7 12/19/7 18/21/7
f 1/12/1 18/21/1 13/11/1
f 9/22/7 18/21/7 12/19/7
f 22/24/8 16/25/8 13/11/8
f 20/28/3 12/7/3 16/39/3
f 12/7/3 21/27/3 9/41/3
f 7/29/3 11/30/3 15/36/3
f 14/15/9 19/32/9 23/3/9
f 11/18/7 10/23/7 9/22/7
f 13/11/1 24/2/1 22/24/1
f 24/2/1 18/21/1 10/23/1
f 20/26/10 23/3/10 19/32/10
f 15/36/3 21/27/3 19/33/3
f 21/27/3 11/30/3 9/41/3
